<?xml version="1.0" encoding="UTF-8" standalone="no"?>
<!-- Created with Inkscape (http://www.inkscape.org/) -->

<svg
   width="132.29167mm"
   height="36.176548mm"
   viewBox="0 0 132.29167 36.176548"
   version="1.1"
   id="svg3623"
   xmlns="http://www.w3.org/2000/svg"
   xmlns:svg="http://www.w3.org/2000/svg">
  <defs
     id="defs3620" />
  <g
     id="layer1"
     transform="translate(15.585946,202.53341)">
    <g
       id="g3842"
       transform="matrix(3.6539093,0,0,3.6539093,41.363688,537.5053)">
      <path
         d="m -12.393203,-195.79369 v 0 l 0.172861,0.007 0.165806,0.0141 0.151694,0.0212 0.144639,0.0282 0.134056,0.0353 0.127,0.0423 0.112888,0.0459 0.105834,0.0564 0.09525,0.0635 0.08467,0.067 v 0 l 0.07408,0.0776 0.07056,0.0776 0.05997,0.0882 0.05292,0.0882 0.04233,0.0988 0.03528,0.10231 0.02822,0.10583 0.02117,0.11289 0.01411,0.11994 0.0035,0.12347 v 0 l -0.0035,0.0811 -0.0071,0.0811 -0.01058,0.0776 -0.01411,0.0741 -0.01764,0.0741 -0.02469,0.0741 -0.02822,0.0706 -0.03175,0.067 -0.03528,0.067 -0.03881,0.067 v 0 l -0.04233,0.0635 -0.04939,0.0635 -0.04939,0.06 -0.05292,0.06 -0.05645,0.0564 -0.05997,0.0564 -0.0635,0.0529 -0.06703,0.0529 -0.07056,0.0494 -0.07056,0.0459 v 0 l -0.07761,0.0459 -0.07761,0.0459 -0.08114,0.0423 -0.08467,0.0388 -0.08467,0.0388 -0.09172,0.0353 -0.09172,0.0317 -0.09525,0.0282 -0.09878,0.0282 -0.09878,0.0247 v 0 l -0.102306,0.0247 -0.102305,0.0247 -0.105834,0.0176 -0.105833,0.0176 -0.109361,0.0141 -0.109361,0.0106 -0.112889,0.0106 -0.112889,0.007 -0.116417,0.004 h -0.119944 v 0 l -0.201083,-0.004 -0.1905,-0.007 -0.183445,-0.0176 -0.172861,-0.0212 -0.162278,-0.0282 -0.151694,-0.0353 -0.144639,-0.0423 -0.130528,-0.0494 -0.123472,-0.0529 -0.112889,-0.0635 v 0 l -0.105833,-0.067 -0.09172,-0.0741 -0.08114,-0.0847 -0.07056,-0.0882 -0.05997,-0.0988 -0.04586,-0.10583 -0.03881,-0.11289 -0.02822,-0.11994 -0.01411,-0.127 -0.0071,-0.13406 v 0 l 0.0035,-0.0811 0.0071,-0.0811 0.01058,-0.0776 0.01411,-0.0776 0.02117,-0.0741 0.02469,-0.0741 0.02822,-0.0705 0.03175,-0.0706 0.03881,-0.0705 0.04233,-0.067 v 0 l 0.04586,-0.06 0.04586,-0.0635 0.05292,-0.0565 0.05292,-0.0564 0.05292,-0.0494 0.05997,-0.0529 0.05997,-0.0459 0.0635,-0.0459 0.06703,-0.0423 0.07056,-0.0388 v 0 l -0.0388,-0.0247 -0.03881,-0.0282 -0.0388,-0.0282 -0.03528,-0.0318 -0.03528,-0.0317 -0.03175,-0.0318 -0.03528,-0.0353 -0.02822,-0.0353 -0.03175,-0.0353 -0.02822,-0.0388 v 0 l -0.0247,-0.0388 -0.02117,-0.0459 -0.02117,-0.0423 -0.01764,-0.0459 -0.01411,-0.0494 -0.01058,-0.0494 -0.01058,-0.0529 -0.0035,-0.0529 -0.0071,-0.0564 v -0.0565 0 l 0.0035,-0.0741 0.0035,-0.0706 0.0071,-0.0705 0.01058,-0.067 0.01411,-0.0635 0.01764,-0.0635 0.02117,-0.0635 0.02469,-0.0564 0.02822,-0.06 0.03175,-0.0529 v 0 l 0.03528,-0.0529 0.03528,-0.0529 0.03881,-0.0529 0.04233,-0.0494 0.04586,-0.0494 0.04586,-0.0459 0.04939,-0.0459 0.04939,-0.0459 0.05292,-0.0459 0.05644,-0.0423 v 0 l -0.06703,-0.0459 -0.05997,-0.0494 -0.05997,-0.0529 -0.05997,-0.0564 -0.05292,-0.06 -0.05292,-0.06 -0.04939,-0.0635 -0.04586,-0.0635 -0.04233,-0.0706 -0.04233,-0.0706 v 0 l -0.03881,-0.0741 -0.03528,-0.0776 -0.02822,-0.0776 -0.02822,-0.0811 -0.02117,-0.0811 -0.01764,-0.0847 -0.01411,-0.0882 -0.01058,-0.0882 -0.0071,-0.0882 v -0.0917 0 -0.0741 l 0.0071,-0.0776 0.0071,-0.0705 0.0071,-0.0741 0.01411,-0.0706 0.01411,-0.0706 0.01764,-0.0705 0.02117,-0.0706 0.02469,-0.067 0.02822,-0.067 v 0 l 0.02822,-0.0635 0.03175,-0.0635 0.03528,-0.0635 0.03528,-0.06 0.03881,-0.0565 0.04233,-0.0564 0.04233,-0.0564 0.04586,-0.0529 0.04939,-0.0494 0.05292,-0.0494 v 0 l 0.05292,-0.0494 0.05997,-0.0459 0.05997,-0.0459 0.05997,-0.0423 0.06703,-0.0388 0.06703,-0.0388 0.07056,-0.0353 0.07055,-0.0353 0.07761,-0.0317 0.07408,-0.0282 v 0 l 0.08114,-0.0282 0.08114,-0.0212 0.08467,-0.0212 0.08467,-0.0212 0.08819,-0.0141 0.09172,-0.0106 0.09172,-0.0106 0.09525,-0.007 0.09525,-0.004 0.102305,-0.004 v 0 l 0.0882,0.004 0.08819,0.004 0.08467,0.004 0.08467,0.0106 0.08114,0.0106 0.08114,0.0141 0.07761,0.0176 0.07761,0.0212 0.07408,0.0212 0.07408,0.0247 v 0 l 0.07408,0.0282 0.07055,0.0282 0.06703,0.0282 0.06703,0.0317 0.06703,0.0318 0.05997,0.0353 0.05997,0.0353 0.05644,0.0353 0.05645,0.0388 0.05292,0.0388 v 0 l 0.04233,-0.0318 0.04586,-0.0282 0.04586,-0.0318 0.04939,-0.0282 0.05292,-0.0247 0.05644,-0.0247 0.05644,-0.0247 0.0635,-0.0247 0.0635,-0.0212 0.06703,-0.0212 v 0 l 0.07056,-0.0212 0.06703,-0.0176 0.07408,-0.0176 0.07408,-0.0141 0.07408,-0.0106 0.07408,-0.0106 0.07761,-0.007 0.07761,-0.007 0.08114,-0.004 h 0.08114 v 0 l 0.01058,0.0388 0.0035,0.0388 0.0071,0.0388 0.0071,0.0423 0.0035,0.0423 0.0035,0.0423 0.0035,0.0423 v 0.0459 l 0.0035,0.0423 v 0.0459 0 0.0247 0.0212 l -0.0035,0.0212 v 0.0247 0.0212 0.0247 l -0.0035,0.0212 v 0.0247 l -0.0035,0.0247 v 0.0247 0 l -0.0035,0.0247 v 0.0212 l -0.0035,0.0247 -0.0035,0.0247 -0.0035,0.0247 -0.0035,0.0247 v 0.0212 l -0.0035,0.0247 -0.0071,0.0247 -0.0035,0.0247 h -0.903111 v 0 l 0.02117,0.0353 0.02117,0.0353 0.02117,0.0353 0.01764,0.0353 0.01764,0.0353 0.01764,0.0388 0.01411,0.0388 0.01411,0.0388 0.01411,0.0388 0.01411,0.0388 v 0 l 0.01058,0.0423 0.01058,0.0423 0.0071,0.0423 0.01058,0.0459 0.0035,0.0423 0.0071,0.0494 0.0035,0.0459 0.0035,0.0494 0.0035,0.0529 v 0.0494 0 l -0.0035,0.0811 -0.0035,0.0811 -0.0071,0.0776 -0.01058,0.0776 -0.01411,0.0741 -0.01764,0.0741 -0.01764,0.0705 -0.02469,0.0706 -0.02469,0.0705 -0.02822,0.067 v 0 l -0.03175,0.0635 -0.03528,0.0635 -0.03528,0.0635 -0.03881,0.06 -0.04233,0.0564 -0.04233,0.0564 -0.04939,0.0564 -0.04939,0.0529 -0.05292,0.0494 -0.05292,0.0494 v 0 l -0.05645,0.0459 -0.05644,0.0423 -0.05997,0.0423 -0.0635,0.0388 -0.0635,0.0353 -0.06703,0.0353 -0.06703,0.0353 -0.07056,0.0282 -0.07408,0.0318 -0.07408,0.0247 v 0 l -0.07761,0.0247 -0.07761,0.0212 -0.08114,0.0176 -0.08114,0.0141 -0.08114,0.0141 -0.08467,0.0106 -0.08467,0.007 -0.0882,0.007 -0.08819,0.004 h -0.0882 v 0 h -0.08467 l -0.07761,-0.004 -0.07761,-0.004 -0.07761,-0.007 -0.07408,-0.007 -0.07408,-0.0106 -0.07408,-0.0106 -0.06703,-0.0141 -0.07056,-0.0141 -0.06703,-0.0176 v 0 l -0.02822,0.0176 -0.02822,0.0176 -0.02822,0.0212 -0.02822,0.0212 -0.02822,0.0247 -0.02822,0.0247 -0.02822,0.0282 -0.02822,0.0317 -0.02822,0.0317 -0.02822,0.0318 v 0 l -0.02469,0.0317 -0.02117,0.0353 -0.01764,0.0318 -0.01764,0.0353 -0.01411,0.0353 -0.01411,0.0353 -0.0071,0.0353 -0.0071,0.0353 -0.0035,0.0388 -0.0035,0.0388 v 0 l 0.0035,0.0353 0.0035,0.0353 0.0071,0.0318 0.0071,0.0353 0.01411,0.0317 0.01411,0.0317 0.01764,0.0318 0.01764,0.0282 0.02117,0.0317 0.02469,0.0282 v 0 l 0.03175,0.0247 0.03528,0.0212 0.04233,0.0212 0.04939,0.0176 0.05292,0.0141 0.0635,0.0141 0.06703,0.0106 0.07408,0.007 0.08114,0.007 h 0.08467 z m -1.354667,0.79375 v 0 h -0.08819 l -0.08467,0.007 -0.07761,0.0106 -0.07761,0.0141 -0.07056,0.0247 -0.0635,0.0247 -0.0635,0.0318 -0.05645,0.0388 -0.05292,0.0423 -0.04939,0.0459 v 0 l -0.04233,0.0529 -0.03528,0.0529 -0.03528,0.0529 -0.02822,0.06 -0.02469,0.0564 -0.01764,0.0635 -0.01764,0.0635 -0.01058,0.0635 -0.0071,0.067 v 0.0706 0 0.0423 l 0.0035,0.0423 0.0035,0.0388 0.0071,0.0388 0.0071,0.0388 0.01058,0.0353 0.01058,0.0318 0.01411,0.0317 0.01411,0.0318 0.01764,0.0282 v 0 l 0.02117,0.0282 0.01764,0.0282 0.02117,0.0247 0.02469,0.0212 0.0247,0.0247 0.02469,0.0212 0.02822,0.0212 0.02822,0.0176 0.02822,0.0176 0.03175,0.0176 v 0 l 0.03528,0.0176 0.03528,0.0141 0.0388,0.0176 0.03528,0.0141 0.0388,0.0106 0.04233,0.0141 0.0388,0.007 0.04233,0.0106 0.04233,0.007 0.04233,0.007 v 0 l 0.04939,0.007 0.04586,0.007 0.04939,0.007 0.04939,0.004 0.04939,0.007 0.04939,0.004 h 0.05292 l 0.04939,0.004 h 0.05292 0.05645 v 0 h 0.155222 l 0.151694,-0.0106 0.141111,-0.0106 0.137584,-0.0212 0.127,-0.0247 0.123472,-0.0282 0.112889,-0.0353 0.109361,-0.0423 0.102305,-0.0459 0.09172,-0.0494 v 0 l 0.08819,-0.0564 0.07408,-0.0564 0.07056,-0.0564 0.05644,-0.0635 0.04939,-0.0635 0.04233,-0.067 0.03175,-0.0705 0.02117,-0.0741 0.01411,-0.0776 0.0035,-0.0776 v 0 -0.06 l -0.0071,-0.0564 -0.01058,-0.0529 -0.01058,-0.0494 -0.01764,-0.0494 -0.02117,-0.0423 -0.02469,-0.0423 -0.02822,-0.0388 -0.03175,-0.0388 -0.03881,-0.0317 v 0 l -0.0388,-0.0318 -0.04939,-0.0282 -0.05292,-0.0247 -0.0635,-0.0212 -0.06703,-0.0176 -0.07056,-0.0141 -0.08114,-0.0141 -0.0882,-0.0106 -0.09172,-0.004 -0.09878,-0.004 z m 0.462139,-2.50825 v 0 l 0.105834,-0.004 0.09878,-0.0106 0.09525,-0.0141 0.0882,-0.0212 0.08114,-0.0282 0.07761,-0.0317 0.07408,-0.0388 0.0635,-0.0459 0.0635,-0.0529 0.05292,-0.0564 v 0 l 0.04939,-0.06 0.04586,-0.067 0.0388,-0.067 0.03528,-0.0741 0.02822,-0.0741 0.02117,-0.0811 0.02117,-0.0811 0.01058,-0.0847 0.0071,-0.0917 0.0035,-0.0917 v 0 l -0.0035,-0.0952 -0.0071,-0.0882 -0.01058,-0.0882 -0.02117,-0.0847 -0.02117,-0.0811 -0.02822,-0.0741 -0.03528,-0.0741 -0.0388,-0.0706 -0.04586,-0.0635 -0.04939,-0.0635 v 0 l -0.05292,-0.06 -0.0635,-0.0529 -0.0635,-0.0459 -0.07408,-0.0388 -0.07761,-0.0353 -0.08114,-0.0282 -0.0882,-0.0212 -0.09525,-0.0141 -0.09878,-0.0106 -0.105834,-0.004 v 0 l -0.105833,0.004 -0.102306,0.0106 -0.09172,0.0141 -0.09172,0.0212 -0.08114,0.0282 -0.07761,0.0353 -0.07056,0.0388 -0.06703,0.0459 -0.05997,0.0529 -0.05644,0.06 v 0 l -0.04939,0.0635 -0.04233,0.0635 -0.03528,0.0706 -0.03528,0.0741 -0.02469,0.0741 -0.02469,0.0811 -0.01764,0.0847 -0.01058,0.0882 -0.0071,0.0882 -0.0035,0.0952 v 0 l 0.0035,0.0917 0.0071,0.0917 0.01058,0.0847 0.01764,0.0811 0.02469,0.0811 0.02469,0.0741 0.03528,0.0741 0.03528,0.067 0.04233,0.067 0.04939,0.06 v 0 l 0.05644,0.0564 0.05997,0.0529 0.06703,0.0459 0.07056,0.0388 0.07761,0.0317 0.08114,0.0282 0.09172,0.0212 0.09172,0.0141 0.102306,0.0106 z"
         style="fill:#ffffff;fill-rule:nonzero;stroke:none;stroke-width:0.264583;stroke-linecap:round;stroke-linejoin:round;stroke-miterlimit:10"
         id="path3217" />
      <path
         d="m -6.8828142,-197.55052 v 0 l -0.03175,-0.004 -0.03175,-0.004 -0.035278,-0.004 -0.035278,-0.004 -0.035278,-0.004 -0.042333,-0.007 -0.038806,-0.004 -0.042333,-0.004 -0.042333,-0.004 -0.045861,-0.004 v 0 l -0.045861,-0.004 -0.045861,-0.004 -0.042333,-0.004 -0.038806,-0.004 h -0.042333 l -0.038805,-0.004 h -0.035278 l -0.035278,-0.004 h -0.035278 -0.03175 v 0 l -0.1234722,0.004 -0.1128889,0.007 -0.1128889,0.0106 -0.1023055,0.0176 -0.098778,0.0176 -0.091722,0.0282 -0.088194,0.0282 -0.081139,0.0353 -0.074083,0.0388 -0.070555,0.0459 v 0 l -0.059972,0.0459 -0.052917,0.0529 -0.049389,0.06 -0.042333,0.0635 -0.035278,0.067 -0.028222,0.0741 -0.021167,0.0776 -0.017639,0.0811 -0.010583,0.0882 -0.00353,0.0917 v 0 l 0.00353,0.0564 0.00353,0.0565 0.00353,0.0564 0.00706,0.0494 0.010583,0.0494 0.014111,0.0459 0.014111,0.0423 0.014111,0.0423 0.021167,0.0353 0.021167,0.0353 v 0 l 0.021167,0.0353 0.024695,0.0317 0.024694,0.0282 0.024694,0.0317 0.028222,0.0247 0.024694,0.0247 0.03175,0.0247 0.028222,0.0212 0.03175,0.0212 0.03175,0.0176 v 0 l 0.03175,0.0176 0.035278,0.0176 0.035278,0.0141 0.038806,0.0141 0.035278,0.0106 0.038806,0.0106 0.035278,0.0106 0.038806,0.007 0.042333,0.004 0.038806,0.007 v 0 l 0.038806,0.004 0.038805,0.004 0.038806,0.004 h 0.038805 l 0.038806,0.004 0.038806,0.004 h 0.038805 0.035278 0.038805 0.035278 v 0 h 0.045861 0.045861 0.045861 0.049389 l 0.045861,-0.004 0.049389,-0.004 h 0.045861 l 0.045861,-0.004 0.049389,-0.004 0.049389,-0.004 v 0 l 0.049389,-0.007 0.045861,-0.007 0.049389,-0.007 0.045861,-0.007 0.045861,-0.007 0.042333,-0.0106 0.042333,-0.007 0.042333,-0.0106 0.038806,-0.007 0.038805,-0.0106 z m 0,-0.97367 v 0 l -0.00353,-0.11289 -0.010583,-0.10936 -0.014111,-0.0988 -0.021167,-0.0952 -0.024694,-0.0847 -0.035278,-0.0776 -0.038805,-0.0741 -0.045861,-0.0635 -0.049389,-0.0564 -0.056444,-0.0494 v 0 l -0.0635,-0.0459 -0.070556,-0.0388 -0.074083,-0.0318 -0.077611,-0.0317 -0.084667,-0.0247 -0.091722,-0.0212 -0.09525,-0.0176 -0.098778,-0.0106 -0.1058333,-0.007 -0.1128889,-0.004 v 0 l -0.070556,0.004 h -0.067028 l -0.070556,0.004 -0.067028,0.004 -0.067028,0.007 -0.0635,0.007 -0.067028,0.007 -0.0635,0.007 -0.0635,0.0106 -0.0635,0.0141 v 0 l -0.059972,0.007 -0.059972,0.0141 -0.059972,0.0106 -0.059972,0.0141 -0.056444,0.0141 -0.059972,0.0141 -0.059972,0.0141 -0.059972,0.0176 -0.056444,0.0141 -0.059972,0.0176 v 0 l -0.035278,-0.067 -0.03175,-0.0705 -0.028222,-0.0706 -0.024694,-0.0776 -0.021167,-0.0776 -0.017639,-0.0811 -0.014111,-0.0811 -0.010583,-0.0882 -0.00353,-0.0882 -0.00353,-0.0882 v 0 l 0.070556,-0.0247 0.070556,-0.0176 0.070556,-0.0212 0.074083,-0.0176 0.074083,-0.0176 0.077611,-0.0176 0.074083,-0.0141 0.081139,-0.0141 0.081139,-0.0141 0.081139,-0.0141 v 0 l 0.081139,-0.0106 0.081139,-0.0106 0.081139,-0.007 0.081139,-0.0106 0.077611,-0.007 0.081139,-0.004 0.077611,-0.004 0.077611,-0.004 0.077611,-0.004 h 0.074083 v 0 l 0.1975556,0.004 0.1869722,0.0141 0.1763889,0.0247 0.1658055,0.0318 0.15875,0.0423 0.1481667,0.0494 0.1375833,0.06 0.127,0.0706 0.1199445,0.0776 0.1093611,0.0882 v 0 l 0.098778,0.0952 0.088194,0.10936 0.077611,0.11642 0.070556,0.127 0.056444,0.14111 0.045861,0.1517 0.038806,0.16227 0.024694,0.17286 0.014111,0.18345 0.00706,0.19755 v 3.22087 0 l -0.070556,0.0141 -0.077611,0.0176 -0.077611,0.0176 -0.081139,0.0141 -0.081139,0.0176 -0.088194,0.0141 -0.088194,0.0176 -0.09525,0.0141 -0.09525,0.0176 -0.098778,0.0141 v 0 l -0.098778,0.0176 -0.1023055,0.0176 -0.1023056,0.0141 -0.1023056,0.0106 -0.1023055,0.0106 -0.1023056,0.007 -0.1023055,0.007 -0.1023056,0.004 -0.1058333,0.004 h -0.1023056 v 0 h -0.098778 l -0.09525,-0.004 -0.09525,-0.004 -0.091722,-0.007 -0.088195,-0.007 -0.088194,-0.0106 -0.088195,-0.0106 -0.084667,-0.0141 -0.081139,-0.0176 -0.081139,-0.0176 v 0 l -0.077611,-0.0176 -0.077611,-0.0212 -0.070556,-0.0247 -0.070555,-0.0247 -0.070556,-0.0282 -0.0635,-0.0317 -0.0635,-0.0318 -0.0635,-0.0353 -0.059972,-0.0353 -0.056444,-0.0388 v 0 l -0.052917,-0.0423 -0.049389,-0.0423 -0.049389,-0.0459 -0.045861,-0.0494 -0.042333,-0.0494 -0.042333,-0.0529 -0.038805,-0.0529 -0.035278,-0.0564 -0.035278,-0.06 -0.03175,-0.06 v 0 l -0.028222,-0.0635 -0.024694,-0.067 -0.021167,-0.067 -0.021167,-0.0741 -0.017639,-0.0741 -0.010583,-0.0741 -0.010583,-0.0811 -0.010583,-0.0811 -0.00353,-0.0847 v -0.0882 0 -0.0847 l 0.00706,-0.0811 0.00706,-0.0811 0.010583,-0.0776 0.017639,-0.0776 0.017639,-0.0741 0.021167,-0.0741 0.028222,-0.067 0.028222,-0.067 0.03175,-0.067 v 0 l 0.038806,-0.0635 0.038806,-0.0635 0.042333,-0.06 0.045861,-0.06 0.045861,-0.0529 0.049389,-0.0529 0.052917,-0.0529 0.052917,-0.0459 0.056444,-0.0459 0.059972,-0.0459 v 0 l 0.059972,-0.0423 0.0635,-0.0388 0.0635,-0.0388 0.067028,-0.0353 0.067028,-0.0353 0.070556,-0.0282 0.074083,-0.0317 0.074083,-0.0247 0.074083,-0.0247 0.077611,-0.0212 v 0 l 0.077611,-0.0212 0.081139,-0.0176 0.081139,-0.0176 0.081139,-0.0141 0.081139,-0.0106 0.081139,-0.0106 0.084667,-0.007 0.084667,-0.007 0.084667,-0.004 h 0.084667 v 0 h 0.0635 0.059972 l 0.059972,0.004 h 0.056445 0.052917 l 0.049389,0.004 0.049389,0.004 0.045861,0.004 0.045861,0.004 0.038806,0.004 v 0 h 0.042333 l 0.038806,0.004 0.038806,0.004 h 0.038806 l 0.035278,0.004 0.035278,0.004 0.03175,0.004 0.03175,0.004 0.03175,0.004 0.028222,0.004 z"
         style="fill:#ffffff;fill-rule:nonzero;stroke:none;stroke-width:0.264583;stroke-linecap:round;stroke-linejoin:round;stroke-miterlimit:10"
         id="path3219" />
      <path
         d="m -4.4133698,-200.28102 v 0 l 0.021167,-0.004 0.021167,-0.004 0.021167,-0.004 0.021167,-0.004 0.021167,-0.004 0.021167,-0.004 h 0.021167 l 0.021167,-0.004 0.021167,-0.004 h 0.021167 v 0 l 0.021167,-0.004 h 0.021167 l 0.021167,-0.004 h 0.024694 0.021167 l 0.021167,-0.004 h 0.021167 0.024694 0.021167 0.021167 v 0 h 0.021167 0.021167 0.021167 0.021167 l 0.021167,0.004 h 0.021167 0.017639 l 0.021167,0.004 h 0.017639 l 0.017639,0.004 v 0 h 0.021167 l 0.021167,0.004 0.017639,0.004 h 0.021167 l 0.021167,0.004 0.021167,0.004 0.021167,0.004 0.021167,0.004 0.024694,0.004 0.021167,0.004 v 0 l 0.00706,0.0318 0.00353,0.0317 0.00706,0.0353 0.00706,0.0388 0.00353,0.0388 0.00706,0.0423 0.00706,0.0423 0.00353,0.0459 0.00706,0.0459 0.00706,0.0494 v 0 l 0.00706,0.0494 0.00353,0.0459 0.00353,0.0423 0.00353,0.0459 0.00353,0.0388 0.00353,0.0423 0.00353,0.0388 v 0.0388 0.0353 0.0353 0 l 0.021167,-0.0353 0.017639,-0.0388 0.021167,-0.0318 0.021167,-0.0353 0.021167,-0.0353 0.021167,-0.0353 0.024694,-0.0317 0.024694,-0.0353 0.024694,-0.0317 0.024694,-0.0318 v 0 l 0.028222,-0.0353 0.028222,-0.0317 0.03175,-0.0318 0.03175,-0.0317 0.03175,-0.0318 0.03175,-0.0282 0.03175,-0.0282 0.035278,-0.0282 0.035278,-0.0282 0.035278,-0.0247 v 0 l 0.038806,-0.0282 0.038806,-0.0247 0.042333,-0.0212 0.042333,-0.0247 0.042333,-0.0212 0.042333,-0.0212 0.045861,-0.0176 0.045861,-0.0176 0.045861,-0.0176 0.045861,-0.0176 v 0 l 0.049389,-0.0141 0.049389,-0.0141 0.052917,-0.0141 0.049389,-0.0106 0.052917,-0.007 0.052917,-0.007 0.056445,-0.007 0.056444,-0.004 0.056445,-0.004 h 0.056444 v 0 l 0.1199445,0.004 0.1093611,0.007 0.1058333,0.0141 0.1023056,0.0176 0.09525,0.0212 0.088194,0.0282 0.084667,0.0317 0.077611,0.0388 0.074083,0.0423 0.067028,0.0459 v 0 l 0.0635,0.0529 0.0635,0.0529 0.0564444,0.0564 0.0564444,0.0635 0.0493889,0.067 0.0493889,0.0706 0.0458611,0.0741 0.0423333,0.0776 0.0388056,0.0811 0.0352778,0.0882 v 0 l 0.0211667,-0.0353 0.0211667,-0.0353 0.0211667,-0.0317 0.0246944,-0.0353 0.0246944,-0.0353 0.0211667,-0.0317 0.0282222,-0.0353 0.0246944,-0.0353 0.0282222,-0.0318 0.0282222,-0.0353 v 0 l 0.0282222,-0.0353 0.03175,-0.0317 0.03175,-0.0318 0.03175,-0.0317 0.03175,-0.0318 0.0352778,-0.0282 0.03175,-0.0282 0.03527778,-0.0282 0.03527777,-0.0282 0.03527778,-0.0247 v 0 l 0.03880555,-0.0282 0.03527778,-0.0247 0.03880556,-0.0212 0.0423333,-0.0247 0.0388055,-0.0212 0.0423333,-0.0212 0.0423333,-0.0176 0.0423333,-0.0176 0.0458611,-0.0176 0.0458611,-0.0176 v 0 l 0.0458611,-0.0141 0.0493889,-0.0141 0.0493889,-0.0141 0.0493889,-0.0106 0.0529167,-0.007 0.0529167,-0.007 0.0529167,-0.007 0.0564444,-0.004 0.0564445,-0.004 h 0.0564444 v 0 l 0.17286108,0.007 0.1658055,0.0141 0.1516945,0.0247 0.1446389,0.0353 0.1340555,0.0459 0.127,0.0529 0.1128889,0.067 0.1058333,0.0741 0.09525,0.0847 0.084667,0.0952 v 0 l 0.077611,0.10583 0.070556,0.11642 0.0635,0.12347 0.052917,0.13406 0.045861,0.14463 0.035278,0.1517 0.028222,0.16228 0.021167,0.17286 0.014111,0.18344 0.00353,0.19403 v 3.28083 0 l -0.024694,0.004 -0.021167,0.004 -0.024694,0.004 -0.024694,0.004 -0.024694,0.004 -0.024694,0.004 H 2.494019 l -0.028222,0.004 -0.028222,0.004 H 2.412881 v 0 l -0.028222,0.004 H 2.356437 l -0.028222,0.004 H 2.303519 l -0.024695,0.004 H 2.25413 2.229436 2.204742 2.183575 2.158881 v 0 H 2.137714 2.116547 2.091853 2.067159 2.042464 l -0.024694,-0.004 H 1.989548 l -0.024695,-0.004 H 1.936631 l -0.028222,-0.004 v 0 H 1.883714 l -0.024694,-0.004 -0.024695,-0.004 H 1.809631 l -0.024694,-0.004 -0.024694,-0.004 -0.024694,-0.004 -0.021167,-0.004 -0.024694,-0.004 -0.021167,-0.004 v -2.99155 0 l -0.00353,-0.13406 -0.00353,-0.13053 -0.010583,-0.11994 -0.017639,-0.11289 -0.017639,-0.10583 -0.021167,-0.10231 -0.028222,-0.0917 -0.03175,-0.0847 -0.035278,-0.0811 -0.042333,-0.0706 v 0 l -0.042333,-0.067 -0.052917,-0.06 -0.052917,-0.0529 -0.0635,-0.0459 -0.067028,-0.0388 -0.070556,-0.0317 -0.077611,-0.0247 -0.0811389,-0.0176 -0.0881944,-0.0106 -0.09525,-0.004 v 0 l -0.10230555,0.004 -0.09525,0.0141 -0.0917222,0.0176 -0.0881944,0.0247 -0.0881944,0.0353 -0.0811389,0.0388 -0.0776111,0.0494 -0.07408333,0.0564 -0.0670277767,0.0635 -0.0670277733,0.0706 v 0 l -0.05997222,0.0776 -0.0529167,0.0847 -0.0458611,0.0917 -0.0423333,0.0988 -0.03175,0.10584 -0.0282222,0.11289 -0.0211667,0.11994 -0.0176389,0.127 -0.0105833,0.13406 v 0.14111 2.91041 0 l -0.0246944,0.004 -0.0211667,0.004 -0.0246944,0.004 -0.0246944,0.004 -0.0246944,0.004 -0.0246944,0.004 h -0.0246944 l -0.0282222,0.004 -0.0282222,0.004 h -0.0282222 v 0 l -0.0246944,0.004 h -0.0246944 l -0.0246945,0.004 h -0.0246944 l -0.0246944,0.004 h -0.0246945 -0.0246944 -0.0211667 -0.0211667 -0.0246944 v 0 h -0.0211667 -0.0246945 -0.0211667 -0.0246945 -0.0246944 l -0.0246945,-0.004 h -0.028222 l -0.024694,-0.004 h -0.028222 l -0.028222,-0.004 v 0 h -0.024694 l -0.028222,-0.004 -0.024695,-0.004 H -1.22426 l -0.021167,-0.004 -0.024694,-0.004 -0.024695,-0.004 -0.021167,-0.004 -0.024695,-0.004 -0.021167,-0.004 v -3.06211 0 l -0.00353,-0.13053 -0.00353,-0.12347 -0.010583,-0.11994 -0.014111,-0.10936 -0.017639,-0.10231 -0.024694,-0.0988 -0.024694,-0.0882 -0.03175,-0.0847 -0.03175,-0.0776 -0.038806,-0.067 v 0 l -0.042333,-0.067 -0.049389,-0.0564 -0.049389,-0.0529 -0.059972,-0.0423 -0.059972,-0.0388 -0.067028,-0.0318 -0.070556,-0.0212 -0.077611,-0.0176 -0.081139,-0.0106 -0.084667,-0.004 v 0 h -0.049389 l -0.049389,0.004 -0.049389,0.007 -0.049389,0.007 -0.045861,0.0106 -0.049389,0.0106 -0.045861,0.0141 -0.045861,0.0176 -0.042333,0.0176 -0.045861,0.0212 v 0 l -0.042333,0.0247 -0.042333,0.0247 -0.042333,0.0282 -0.042333,0.0282 -0.038805,0.0318 -0.038806,0.0353 -0.038806,0.0353 -0.035278,0.0388 -0.035278,0.0423 -0.035278,0.0423 v 0 l -0.03175,0.0459 -0.028222,0.0459 -0.03175,0.0529 -0.028222,0.0529 -0.024694,0.0529 -0.024694,0.0565 -0.024694,0.06 -0.024694,0.0635 -0.021167,0.0635 -0.021167,0.067 v 0 l -0.017639,0.067 -0.014111,0.0705 -0.014111,0.0741 -0.010583,0.0706 -0.010583,0.0776 -0.00706,0.0776 -0.00706,0.0811 -0.00353,0.0847 -0.00353,0.0847 -0.00353,0.0847 v 2.63172 0 l -0.021167,0.004 -0.021167,0.004 -0.024694,0.004 -0.024695,0.004 -0.024694,0.004 -0.024694,0.004 h -0.028222 l -0.024694,0.004 -0.028222,0.004 h -0.028222 v 0 l -0.024694,0.004 h -0.024694 l -0.024694,0.004 h -0.024694 l -0.024694,0.004 h -0.024694 -0.024695 -0.021167 -0.024694 -0.021167 v 0 H -3.933609 -3.958303 -3.97947 -4.004164 -4.028858 l -0.028222,-0.004 h -0.024694 l -0.024694,-0.004 H -4.13469 l -0.028222,-0.004 v 0 h -0.028222 l -0.028222,-0.004 -0.024694,-0.004 h -0.028222 l -0.024694,-0.004 -0.024694,-0.004 -0.024694,-0.004 -0.021167,-0.004 -0.024694,-0.004 -0.021167,-0.004 z"
         style="fill:#ffffff;fill-rule:nonzero;stroke:none;stroke-width:0.264583;stroke-linecap:round;stroke-linejoin:round;stroke-miterlimit:10"
         id="path3221" />
      <path
         d="m 4.1379634,-202.48941 v 0 l 0.021167,-0.004 0.024694,-0.004 0.021167,-0.004 0.024694,-0.004 0.024694,-0.004 h 0.024694 l 0.024694,-0.004 0.024695,-0.004 0.024694,-0.004 h 0.024694 v 0 l 0.028222,-0.004 h 0.028222 l 0.024694,-0.004 h 0.028222 0.024694 l 0.024694,-0.004 h 0.024694 0.024694 0.021167 0.021167 v 0 h 0.024694 0.021167 0.024694 0.021167 l 0.024694,0.004 h 0.024695 0.024694 l 0.024694,0.004 h 0.024694 l 0.028222,0.004 v 0 h 0.028222 l 0.024694,0.004 0.028222,0.004 0.024694,0.004 h 0.024694 l 0.024694,0.004 0.024694,0.004 0.024694,0.004 0.021167,0.004 0.024694,0.004 v 5.80319 0 0.0529 0.0529 l 0.00353,0.0529 0.00353,0.0459 0.00353,0.0459 0.00706,0.0423 0.00706,0.0423 0.00706,0.0388 0.00706,0.0353 0.010583,0.0318 v 0 l 0.010583,0.0317 0.010583,0.0318 0.010583,0.0282 0.014111,0.0247 0.010583,0.0282 0.014111,0.0247 0.014111,0.0212 0.014111,0.0212 0.017639,0.0212 0.014111,0.0176 v 0 l 0.017639,0.0176 0.021167,0.0141 0.017639,0.0141 0.017639,0.0106 0.021167,0.0106 0.021167,0.0106 0.021167,0.0106 0.021167,0.0106 0.021167,0.007 0.021167,0.007 v 0 l 0.024695,0.004 0.024694,0.004 h 0.024694 l 0.024694,0.004 0.024694,0.004 h 0.02468 l 0.024695,0.004 h 0.024694 0.028222 0.024694 v 0 H 5.771324 5.792491 5.81013 5.827769 l 0.021167,-0.004 H 5.870103 5.89127 l 0.021167,-0.004 h 0.021167 l 0.021167,-0.004 v 0 h 0.024694 l 0.021167,-0.004 0.021167,-0.004 h 0.021167 l 0.021167,-0.004 0.021167,-0.004 0.017639,-0.004 0.017639,-0.004 0.017639,-0.004 0.017639,-0.004 v 0 l 0.017639,0.0706 0.014111,0.0705 0.014111,0.0741 0.010583,0.0741 0.010583,0.0776 0.00706,0.0741 0.00706,0.0811 0.00353,0.0776 0.00353,0.0811 v 0.0811 0 l -0.028222,0.0106 -0.028222,0.007 -0.03175,0.0106 -0.03175,0.007 -0.035278,0.004 -0.03175,0.007 -0.038806,0.004 -0.035278,0.007 H 5.944202 l -0.038806,0.004 v 0 l -0.042333,0.004 -0.038806,0.004 -0.038806,0.004 -0.035278,0.004 H 5.711367 l -0.035278,0.004 H 5.637283 l -0.035278,0.004 H 5.566727 5.531449 v 0 H 5.475005 l -0.056444,-0.004 -0.056445,-0.004 -0.056444,-0.004 -0.052917,-0.007 -0.052917,-0.007 -0.052917,-0.0106 -0.052917,-0.0106 -0.052917,-0.0106 -0.049389,-0.0141 v 0 l -0.049389,-0.0141 -0.049389,-0.0176 -0.045861,-0.0176 -0.045861,-0.0212 -0.045861,-0.0212 -0.042333,-0.0247 -0.042333,-0.0282 -0.042333,-0.0247 -0.038806,-0.0317 -0.038805,-0.0318 v 0 l -0.038806,-0.0317 -0.035278,-0.0353 -0.035278,-0.0388 -0.03175,-0.0388 -0.03175,-0.0423 -0.028222,-0.0423 -0.028222,-0.0494 -0.024694,-0.0459 -0.024694,-0.0529 -0.024694,-0.0529 v 0 l -0.021167,-0.0564 -0.017639,-0.0564 -0.017639,-0.06 -0.014111,-0.0635 -0.010583,-0.067 -0.010583,-0.067 -0.00706,-0.0741 -0.00706,-0.0705 -0.00353,-0.0776 v -0.0811 z"
         style="fill:#ffffff;fill-rule:nonzero;stroke:none;stroke-width:0.264583;stroke-linecap:round;stroke-linejoin:round;stroke-miterlimit:10"
         id="path3223" />
      <path
         d="m 7.0589633,-196.06533 v 0 l 0.052917,0.0212 0.056444,0.0212 0.056444,0.0212 0.059972,0.0212 0.056444,0.0176 0.059972,0.0176 0.059972,0.0176 0.0635,0.0141 0.0635,0.0141 0.0635,0.0176 v 0 l 0.067028,0.0106 0.0635,0.0106 0.067028,0.007 0.0635,0.007 0.067028,0.007 0.0635,0.007 0.067028,0.004 0.0635,0.004 h 0.067028 l 0.0635,0.004 v 0 l 0.045861,-0.004 h 0.045861 l 0.045861,-0.004 0.042333,-0.004 0.045861,-0.004 0.042333,-0.007 0.045861,-0.004 0.042333,-0.0106 0.042333,-0.007 0.042333,-0.0106 v 0 l 0.042333,-0.0106 0.038805,-0.0106 0.038806,-0.0106 0.038805,-0.0141 0.035278,-0.0141 0.038806,-0.0176 0.03175,-0.0176 0.035278,-0.0176 0.03175,-0.0176 0.028222,-0.0176 v 0 l 0.03175,-0.0212 0.03175,-0.0212 0.028222,-0.0212 0.028222,-0.0247 0.024694,-0.0247 0.024694,-0.0247 0.021167,-0.0247 0.021167,-0.0247 0.021167,-0.0282 0.021167,-0.0282 v 0 l 0.017639,-0.0282 0.017639,-0.0317 0.014111,-0.0317 0.014111,-0.0318 0.010583,-0.0317 0.00706,-0.0353 0.00706,-0.0353 0.00706,-0.0318 0.00353,-0.0353 v -0.0353 0 -0.0423 l -0.00353,-0.0353 -0.00353,-0.0388 -0.00706,-0.0353 -0.00706,-0.0317 -0.00706,-0.0353 -0.010583,-0.0282 -0.014111,-0.0317 -0.010583,-0.0282 -0.017639,-0.0247 v 0 l -0.014111,-0.0282 -0.014111,-0.0247 -0.017639,-0.0247 -0.017639,-0.0212 -0.021167,-0.0247 -0.021167,-0.0212 -0.021167,-0.0212 -0.024694,-0.0176 -0.021167,-0.0212 -0.028222,-0.0176 v 0 l -0.024694,-0.0176 -0.024694,-0.0176 -0.024694,-0.0176 -0.028222,-0.0141 -0.028222,-0.0141 -0.03175,-0.0176 -0.028222,-0.0141 -0.03175,-0.0106 -0.035278,-0.0141 -0.03175,-0.0141 v 0 l -0.03175,-0.0141 -0.035278,-0.0141 -0.03175,-0.0106 -0.035278,-0.0141 -0.035278,-0.0141 -0.035278,-0.0141 -0.035278,-0.0106 -0.035278,-0.0141 -0.038806,-0.0106 -0.038806,-0.0141 -0.34925,-0.13053 v 0 l -0.127,-0.0459 -0.1164167,-0.0529 -0.1128889,-0.0494 -0.1023055,-0.0529 -0.098778,-0.0529 -0.088194,-0.0564 -0.084667,-0.0564 -0.074083,-0.0565 -0.067028,-0.0564 -0.0635,-0.06 v 0 l -0.056444,-0.0635 -0.049389,-0.067 -0.042333,-0.0706 -0.038806,-0.0741 -0.03175,-0.0811 -0.024694,-0.0811 -0.021167,-0.0882 -0.014111,-0.0917 -0.010583,-0.0952 v -0.1023 0 l 0.00353,-0.13406 0.014111,-0.127 0.024694,-0.12347 0.03175,-0.11642 0.045861,-0.10936 0.052917,-0.10583 0.059972,-0.10231 0.074083,-0.0917 0.081139,-0.0882 0.091722,-0.0847 v 0 l 0.1023056,-0.0776 0.1128888,-0.067 0.1199445,-0.06 0.1305278,-0.0529 0.1411111,-0.0423 0.1446389,-0.0388 0.1587499,-0.0282 0.1658056,-0.0176 0.1763889,-0.0141 0.1834444,-0.004 v 0 h 0.077611 l 0.077611,0.004 0.077611,0.004 0.077611,0.007 0.077611,0.007 0.074083,0.007 0.077611,0.0106 0.074083,0.0141 0.074083,0.0141 0.074083,0.0141 v 0 l 0.077611,0.0141 0.070556,0.0141 0.074083,0.0176 0.067028,0.0141 0.067028,0.0176 0.067028,0.0176 0.0635,0.0176 0.05997,0.0176 0.05997,0.0212 0.05644,0.0176 v 0 l -0.0035,0.0423 -0.0071,0.0388 -0.0035,0.0388 -0.0071,0.0423 -0.01058,0.0388 -0.0071,0.0423 -0.01058,0.0388 -0.0071,0.0388 -0.01058,0.0423 -0.01411,0.0388 v 0 l -0.01058,0.0388 -0.01058,0.0423 -0.01058,0.0353 -0.01411,0.0388 -0.01058,0.0388 -0.01411,0.0353 -0.01411,0.0388 -0.01411,0.0353 -0.01411,0.0353 -0.01764,0.0317 v 0 l -0.04586,-0.0141 -0.045861,-0.0176 -0.049389,-0.0141 -0.049389,-0.0141 -0.052917,-0.0176 -0.052917,-0.0141 -0.056444,-0.0141 -0.056445,-0.0141 -0.059972,-0.0141 -0.0635,-0.0141 v 0 l -0.059972,-0.0176 -0.059972,-0.0141 -0.0635,-0.0106 -0.0635,-0.0106 -0.0635,-0.007 -0.067028,-0.007 -0.067028,-0.007 -0.067028,-0.004 -0.070556,-0.004 H 8.903991 v 0 H 8.833436 l -0.074083,0.004 -0.070556,0.007 -0.067028,0.0106 -0.067028,0.0106 -0.067028,0.0141 -0.0635,0.0176 -0.059972,0.0212 -0.0635,0.0212 -0.056444,0.0247 v 0 l -0.052917,0.0282 -0.049389,0.0317 -0.042333,0.0353 -0.035278,0.0423 -0.03175,0.0423 -0.024694,0.0494 -0.021167,0.0529 -0.014111,0.0564 -0.00706,0.06 -0.00353,0.0635 v 0 0.0318 l 0.00353,0.0353 0.00353,0.0317 0.00353,0.0282 0.00706,0.0318 0.00706,0.0282 0.010583,0.0282 0.010583,0.0247 0.010583,0.0247 0.014111,0.0247 v 0 l 0.014111,0.0247 0.014111,0.0247 0.017639,0.0212 0.017639,0.0212 0.017639,0.0212 0.021167,0.0212 0.021167,0.0212 0.021167,0.0176 0.021167,0.0212 0.024694,0.0176 v 0 l 0.024694,0.0176 0.024694,0.0141 0.024694,0.0141 0.028222,0.0141 0.024694,0.0141 0.028222,0.0141 0.028222,0.0141 0.028222,0.0141 0.028222,0.0106 0.03175,0.0141 v 0 l 0.03175,0.0106 0.03175,0.0141 0.035278,0.0106 0.03175,0.0141 0.035278,0.0106 0.035278,0.0106 0.03175,0.0141 0.035278,0.0106 0.035278,0.0141 0.038806,0.0106 0.4409722,0.15169 v 0 l 0.045861,0.0141 0.049389,0.0176 0.045861,0.0176 0.045861,0.0176 0.045861,0.0212 0.045861,0.0176 0.042333,0.0212 0.045861,0.0212 0.042333,0.0212 0.042333,0.0212 v 0 l 0.042333,0.0212 0.042333,0.0247 0.042333,0.0247 0.038806,0.0282 0.035278,0.0247 0.038806,0.0282 0.035278,0.0317 0.03175,0.0318 0.03175,0.0317 0.03175,0.0317 v 0 l 0.03175,0.0353 0.02822,0.0353 0.03175,0.0353 0.02469,0.0388 0.02822,0.0388 0.02469,0.0388 0.02117,0.0423 0.02117,0.0459 0.02117,0.0459 0.01764,0.0459 v 0 l 0.02117,0.0494 0.01411,0.0494 0.01764,0.0494 0.01058,0.0529 0.01411,0.0564 0.0071,0.0565 0.0071,0.06 0.0071,0.06 v 0.0635 l 0.0035,0.067 v 0 l -0.0035,0.0706 -0.0035,0.0741 -0.0071,0.0705 -0.01058,0.0706 -0.01411,0.0706 -0.01764,0.067 -0.01764,0.067 -0.02469,0.0635 -0.0247,0.0635 -0.02822,0.0635 v 0 l -0.03175,0.06 -0.03528,0.0564 -0.03528,0.0564 -0.0388,0.0564 -0.04233,0.0529 -0.04586,0.0494 -0.04586,0.0494 -0.049389,0.0494 -0.052917,0.0459 -0.052917,0.0459 v 0 l -0.056444,0.0423 -0.056444,0.0388 -0.0635,0.0388 -0.059972,0.0353 -0.067028,0.0317 -0.067028,0.0353 -0.070556,0.0282 -0.070555,0.0282 -0.074083,0.0282 -0.077611,0.0247 v 0 l -0.081139,0.0212 -0.077611,0.0212 -0.084667,0.0176 -0.084667,0.0176 -0.084667,0.0141 -0.084667,0.0106 -0.091722,0.007 -0.088195,0.007 -0.091722,0.004 h -0.09525 v 0 h -0.09525 l -0.091722,-0.004 -0.091722,-0.004 -0.088195,-0.004 -0.084667,-0.007 -0.081139,-0.007 -0.081139,-0.0106 -0.081139,-0.0106 -0.074083,-0.0106 -0.074083,-0.0141 v 0 l -0.070556,-0.0106 -0.070556,-0.0141 -0.070555,-0.0141 -0.070556,-0.0176 -0.067028,-0.0141 -0.067028,-0.0176 -0.0635,-0.0212 -0.067028,-0.0176 -0.0635,-0.0212 -0.059972,-0.0212 v 0 l 0.00353,-0.0423 0.00353,-0.0388 0.00706,-0.0388 0.00706,-0.0423 0.00706,-0.0388 0.00706,-0.0423 0.010583,-0.0388 0.010583,-0.0388 0.010583,-0.0423 0.010583,-0.0388 v 0 l 0.014111,-0.0423 0.014111,-0.0423 0.014111,-0.0423 0.017639,-0.0388 0.014111,-0.0423 0.014111,-0.0423 0.017639,-0.0388 0.014111,-0.0423 0.014111,-0.0388 z"
         style="fill:#ffffff;fill-rule:nonzero;stroke:none;stroke-width:0.264583;stroke-linecap:round;stroke-linejoin:round;stroke-miterlimit:10"
         id="path3225" />
      <path
         d="m 11.627435,-196.06533 v 0 l 0.05292,0.0212 0.05645,0.0212 0.05644,0.0212 0.05644,0.0212 0.05997,0.0176 0.05997,0.0176 0.05997,0.0176 0.0635,0.0141 0.05997,0.0141 0.0635,0.0176 v 0 l 0.06703,0.0106 0.06703,0.0106 0.06703,0.007 0.0635,0.007 0.06703,0.007 0.0635,0.007 0.0635,0.004 0.06703,0.004 h 0.0635 l 0.0635,0.004 v 0 l 0.04586,-0.004 h 0.04586 l 0.04586,-0.004 0.04586,-0.004 0.04233,-0.004 0.04586,-0.007 0.04233,-0.004 0.04233,-0.0106 0.04586,-0.007 0.04233,-0.0106 v 0 l 0.03881,-0.0106 0.04233,-0.0106 0.03881,-0.0106 0.0388,-0.0141 0.03528,-0.0141 0.03528,-0.0176 0.03528,-0.0176 0.03175,-0.0176 0.03175,-0.0176 0.03175,-0.0176 v 0 l 0.03175,-0.0212 0.02822,-0.0212 0.03175,-0.0212 0.02469,-0.0247 0.02822,-0.0247 0.02117,-0.0247 0.02469,-0.0247 0.02117,-0.0247 0.02117,-0.0282 0.01764,-0.0282 v 0 l 0.02117,-0.0282 0.01411,-0.0317 0.01764,-0.0317 0.01058,-0.0318 0.01058,-0.0317 0.01058,-0.0353 0.0071,-0.0353 0.0035,-0.0318 0.0035,-0.0353 0.0035,-0.0353 v 0 l -0.0035,-0.0423 v -0.0353 l -0.0035,-0.0388 -0.0071,-0.0353 -0.0071,-0.0317 -0.01058,-0.0353 -0.01058,-0.0282 -0.01058,-0.0317 -0.01411,-0.0282 -0.01411,-0.0247 v 0 l -0.01411,-0.0282 -0.01764,-0.0247 -0.01764,-0.0247 -0.01764,-0.0212 -0.01764,-0.0247 -0.02117,-0.0212 -0.02117,-0.0212 -0.02469,-0.0176 -0.02469,-0.0212 -0.02469,-0.0176 v 0 l -0.02469,-0.0176 -0.02469,-0.0176 -0.02822,-0.0176 -0.02822,-0.0141 -0.02822,-0.0141 -0.02822,-0.0176 -0.03175,-0.0141 -0.03175,-0.0106 -0.03175,-0.0141 -0.03528,-0.0141 v 0 l -0.03175,-0.0141 -0.03175,-0.0141 -0.03528,-0.0106 -0.03175,-0.0141 -0.03528,-0.0141 -0.03528,-0.0141 -0.0388,-0.0106 -0.03528,-0.0141 -0.03528,-0.0106 -0.0388,-0.0141 -0.352778,-0.13053 v 0 l -0.123472,-0.0459 -0.119945,-0.0529 -0.109361,-0.0494 -0.105833,-0.0529 -0.09525,-0.0529 -0.0882,-0.0564 -0.08467,-0.0564 -0.07408,-0.0565 -0.07056,-0.0564 -0.05997,-0.06 v 0 l -0.05644,-0.0635 -0.04939,-0.067 -0.04233,-0.0706 -0.03881,-0.0741 -0.03175,-0.0811 -0.02822,-0.0811 -0.01764,-0.0882 -0.01764,-0.0917 -0.0071,-0.0952 -0.0035,-0.1023 v 0 l 0.0035,-0.13406 0.01764,-0.127 0.02117,-0.12347 0.03528,-0.11642 0.04233,-0.10936 0.05292,-0.10583 0.0635,-0.10231 0.07408,-0.0917 0.08114,-0.0882 0.09172,-0.0847 v 0 l 0.102306,-0.0776 0.112889,-0.067 0.119944,-0.06 0.130528,-0.0529 0.137583,-0.0423 0.148167,-0.0388 0.15875,-0.0282 0.165806,-0.0176 0.172861,-0.0141 0.186972,-0.004 v 0 h 0.07761 l 0.07761,0.004 0.07761,0.004 0.07408,0.007 0.07761,0.007 0.07761,0.007 0.07408,0.0106 0.07408,0.0141 0.07761,0.0141 0.07408,0.0141 v 0 l 0.07408,0.0141 0.07408,0.0141 0.07056,0.0176 0.07056,0.0141 0.06703,0.0176 0.0635,0.0176 0.0635,0.0176 0.0635,0.0176 0.05645,0.0212 0.05997,0.0176 v 0 l -0.0071,0.0423 -0.0035,0.0388 -0.0071,0.0388 -0.0071,0.0423 -0.0071,0.0388 -0.0071,0.0423 -0.01058,0.0388 -0.01058,0.0388 -0.01058,0.0423 -0.01058,0.0388 v 0 l -0.01058,0.0388 -0.01058,0.0423 -0.01058,0.0353 -0.01411,0.0388 -0.01411,0.0388 -0.01058,0.0353 -0.01411,0.0388 -0.01411,0.0353 -0.01764,0.0353 -0.01411,0.0317 v 0 l -0.04586,-0.0141 -0.04586,-0.0176 -0.04939,-0.0141 -0.04939,-0.0141 -0.05292,-0.0176 -0.05292,-0.0141 -0.05644,-0.0141 -0.05997,-0.0141 -0.05997,-0.0141 -0.05997,-0.0141 v 0 l -0.05997,-0.0176 -0.0635,-0.0141 -0.05997,-0.0106 -0.06703,-0.0106 -0.0635,-0.007 -0.06703,-0.007 -0.0635,-0.007 -0.07056,-0.004 -0.06703,-0.004 h -0.07056 v 0 h -0.07408 l -0.07056,0.004 -0.07055,0.007 -0.06703,0.0106 -0.06703,0.0106 -0.06703,0.0141 -0.0635,0.0176 -0.0635,0.0212 -0.05997,0.0212 -0.05997,0.0247 v 0 l -0.05292,0.0282 -0.04586,0.0317 -0.04233,0.0353 -0.03881,0.0423 -0.02822,0.0423 -0.02822,0.0494 -0.01764,0.0529 -0.01411,0.0564 -0.01058,0.06 v 0.0635 0 0.0318 0.0353 l 0.0035,0.0317 0.0071,0.0282 0.0071,0.0318 0.0071,0.0282 0.0071,0.0282 0.01058,0.0247 0.01411,0.0247 0.01411,0.0247 v 0 l 0.01411,0.0247 0.01411,0.0247 0.01764,0.0212 0.01764,0.0212 0.01764,0.0212 0.02117,0.0212 0.01764,0.0212 0.02469,0.0176 0.02117,0.0212 0.02469,0.0176 v 0 l 0.0247,0.0176 0.02469,0.0141 0.02469,0.0141 0.0247,0.0141 0.02822,0.0141 0.02822,0.0141 0.02822,0.0141 0.02822,0.0141 0.02822,0.0106 0.02822,0.0141 v 0 l 0.03528,0.0106 0.03175,0.0141 0.03175,0.0106 0.03528,0.0141 0.03175,0.0106 0.03528,0.0106 0.03528,0.0141 0.03528,0.0106 0.03528,0.0141 0.03528,0.0106 0.440972,0.15169 v 0 l 0.04939,0.0141 0.04586,0.0176 0.04939,0.0176 0.04586,0.0176 0.04586,0.0212 0.04233,0.0176 0.04586,0.0212 0.04233,0.0212 0.04233,0.0212 0.04233,0.0212 v 0 l 0.04586,0.0212 0.04233,0.0247 0.0388,0.0247 0.03881,0.0282 0.0388,0.0247 0.03528,0.0282 0.03528,0.0317 0.03528,0.0318 0.03175,0.0317 0.03175,0.0317 v 0 l 0.03175,0.0353 0.02822,0.0353 0.02822,0.0353 0.02822,0.0388 0.02469,0.0388 0.02469,0.0388 0.02469,0.0423 0.02117,0.0459 0.01764,0.0459 0.02117,0.0459 v 0 l 0.01764,0.0494 0.01764,0.0494 0.01411,0.0494 0.01411,0.0529 0.01058,0.0564 0.01058,0.0565 0.0071,0.06 0.0035,0.06 0.0035,0.0635 v 0.067 0 0.0706 l -0.0035,0.0741 -0.01058,0.0705 -0.01058,0.0706 -0.01058,0.0706 -0.01764,0.067 -0.02117,0.067 -0.02117,0.0635 -0.0247,0.0635 -0.02822,0.0635 v 0 l -0.03175,0.06 -0.03528,0.0564 -0.03528,0.0564 -0.03881,0.0564 -0.04233,0.0529 -0.04586,0.0494 -0.04586,0.0494 -0.04939,0.0494 -0.05292,0.0459 -0.05645,0.0459 v 0 l -0.05292,0.0423 -0.05997,0.0388 -0.05997,0.0388 -0.0635,0.0353 -0.0635,0.0317 -0.06703,0.0353 -0.07056,0.0282 -0.07408,0.0282 -0.07408,0.0282 -0.07761,0.0247 v 0 l -0.07761,0.0212 -0.08114,0.0212 -0.08114,0.0176 -0.08467,0.0176 -0.08467,0.0141 -0.08819,0.0106 -0.0882,0.007 -0.09172,0.007 -0.09172,0.004 h -0.09172 v 0 h -0.09525 l -0.09525,-0.004 -0.0882,-0.004 -0.08819,-0.004 -0.08467,-0.007 -0.08467,-0.007 -0.08114,-0.0106 -0.07761,-0.0106 -0.07408,-0.0106 -0.07408,-0.0141 v 0 l -0.07408,-0.0106 -0.07056,-0.0141 -0.06703,-0.0141 -0.07056,-0.0176 -0.06703,-0.0141 -0.06703,-0.0176 -0.06703,-0.0212 -0.0635,-0.0176 -0.0635,-0.0212 -0.0635,-0.0212 v 0 l 0.0035,-0.0423 0.0071,-0.0388 0.0071,-0.0388 0.0035,-0.0423 0.01058,-0.0388 0.0071,-0.0423 0.01058,-0.0388 0.01058,-0.0388 0.01058,-0.0423 0.01058,-0.0388 v 0 l 0.01411,-0.0423 0.01411,-0.0423 0.01411,-0.0423 0.01411,-0.0388 0.01764,-0.0423 0.01411,-0.0423 0.01411,-0.0388 0.01764,-0.0423 0.01411,-0.0388 z"
         style="fill:#ffffff;fill-rule:nonzero;stroke:none;stroke-width:0.264583;stroke-linecap:round;stroke-linejoin:round;stroke-miterlimit:10"
         id="path3227" />
      <path
         d="m 16.111241,-195.13047 -0.05997,-0.13052 1.9685,-2.30012 v 0 l 0.05292,-0.06 0.04939,-0.06 0.04939,-0.0635 0.04939,-0.0564 0.04939,-0.06 0.04939,-0.0564 0.04586,-0.06 0.04586,-0.0529 0.04586,-0.0564 0.04586,-0.0565 v 0 l 0.04233,-0.0564 0.04586,-0.0529 0.04233,-0.0564 0.04233,-0.0529 0.03881,-0.0565 0.0388,-0.0529 0.03528,-0.0529 0.03881,-0.0529 0.03175,-0.0529 0.03528,-0.0529 v 0 l 0.03175,-0.0529 0.03175,-0.0529 0.03175,-0.0494 0.02822,-0.0529 0.02469,-0.0529 0.0247,-0.0494 0.02469,-0.0494 0.02117,-0.0529 0.02117,-0.0494 0.02117,-0.0494 v 0 l 0.01764,-0.0529 0.01764,-0.0494 0.01411,-0.0529 0.01411,-0.0494 0.01058,-0.0529 0.0071,-0.0529 0.0071,-0.0529 0.0071,-0.0529 0.0035,-0.0529 v -0.0529 0 l -0.0035,-0.10583 -0.01058,-0.0988 -0.01764,-0.0917 -0.02469,-0.0917 -0.02822,-0.0811 -0.0388,-0.0811 -0.04233,-0.0741 -0.05292,-0.067 -0.05645,-0.0635 -0.06703,-0.06 v 0 l -0.07056,-0.0529 -0.07761,-0.0494 -0.08114,-0.0388 -0.0882,-0.0388 -0.09525,-0.0317 -0.102305,-0.0247 -0.105833,-0.0176 -0.109362,-0.0141 -0.119944,-0.0106 -0.123472,-0.004 v 0 l -0.09525,0.004 -0.09172,0.004 -0.08819,0.004 -0.08467,0.007 -0.08467,0.0106 -0.07761,0.0141 -0.07761,0.0141 -0.07408,0.0176 -0.07056,0.0176 -0.06703,0.0212 v 0 l -0.06703,0.0212 -0.06703,0.0247 -0.0635,0.0212 -0.0635,0.0247 -0.06703,0.0247 -0.0635,0.0247 -0.0635,0.0282 -0.0635,0.0247 -0.0635,0.0282 -0.05997,0.0282 v 0 l -0.01764,-0.0388 -0.01411,-0.0423 -0.01764,-0.0388 -0.01764,-0.0423 -0.01411,-0.0423 -0.01764,-0.0388 -0.01411,-0.0423 -0.01764,-0.0423 -0.01411,-0.0423 -0.01764,-0.0423 v 0 l -0.01411,-0.0423 -0.01058,-0.0423 -0.01411,-0.0423 -0.01058,-0.0423 -0.0071,-0.0423 -0.01058,-0.0423 -0.0071,-0.0459 -0.0071,-0.0423 -0.0035,-0.0459 -0.0035,-0.0423 v 0 l 0.07056,-0.0318 0.07056,-0.0282 0.07408,-0.0282 0.07408,-0.0282 0.07761,-0.0282 0.07761,-0.0282 0.08114,-0.0282 0.08114,-0.0282 0.08114,-0.0247 0.08467,-0.0282 v 0 l 0.08819,-0.0247 0.08819,-0.0212 0.09525,-0.0212 0.09525,-0.0141 0.09878,-0.0141 0.102306,-0.0141 0.102305,-0.007 0.109361,-0.007 0.109361,-0.004 0.112889,-0.004 v 0 l 0.102306,0.004 0.09878,0.004 0.09878,0.004 0.09525,0.0106 0.09525,0.0106 0.09172,0.0141 0.09172,0.0141 0.08819,0.0176 0.0882,0.0212 0.08467,0.0212 v 0 l 0.08114,0.0247 0.08114,0.0247 0.07761,0.0282 0.07761,0.0317 0.07408,0.0318 0.07056,0.0353 0.06703,0.0388 0.06703,0.0388 0.0635,0.0423 0.0635,0.0459 v 0 l 0.05997,0.0494 0.05644,0.0494 0.05645,0.0529 0.04939,0.0529 0.04939,0.06 0.04586,0.06 0.04233,0.0635 0.03881,0.067 0.0388,0.067 0.03175,0.0705 v 0 l 0.03528,0.0706 0.02822,0.0741 0.0247,0.0776 0.02117,0.0811 0.02117,0.0811 0.01411,0.0847 0.01058,0.0882 0.01058,0.0882 0.0035,0.0917 0.0035,0.0952 v 0 l -0.0035,0.13405 -0.01058,0.13406 -0.02117,0.13405 -0.02469,0.13053 -0.03528,0.13053 -0.0388,0.13053 -0.04939,0.127 -0.05644,0.13052 -0.0635,0.127 -0.07055,0.127 v 0 l -0.07408,0.127 -0.08467,0.13053 -0.09172,0.13406 -0.09525,0.13758 -0.102306,0.13758 -0.109361,0.14112 -0.112889,0.14816 -0.119944,0.14464 -0.127,0.1517 -0.134056,0.15169 -0.963083,1.09714 h 2.659944 v 0 l 0.0035,0.0212 0.0035,0.0212 0.0035,0.0212 0.0035,0.0247 0.0035,0.0212 v 0.0212 l 0.0035,0.0212 0.0035,0.0247 v 0.0212 l 0.0035,0.0212 v 0 l 0.0035,0.0212 v 0.0247 l 0.0035,0.0212 v 0.0247 0.0212 0.0247 l 0.0035,0.0212 v 0.0247 0.0247 0.0247 0 0.0212 0.0212 0.0212 l -0.0035,0.0247 v 0.0212 0.0212 0.0212 l -0.0035,0.0247 v 0.0212 l -0.0035,0.0212 v 0 l -0.0035,0.0212 v 0.0247 l -0.0035,0.0212 -0.0035,0.0212 v 0.0212 l -0.0035,0.0212 -0.0035,0.0212 -0.0035,0.0176 -0.0035,0.0212 -0.0035,0.0212 z"
         style="fill:#ffffff;fill-rule:nonzero;stroke:none;stroke-width:0.264583;stroke-linecap:round;stroke-linejoin:round;stroke-miterlimit:10"
         id="path3229" />
    </g>
  </g>
</svg>
