<?xml version="1.0" encoding="UTF-8" standalone="no"?>
<!-- Created with Inkscape (http://www.inkscape.org/) -->

<svg
   width="111.11518mm"
   height="64.165535mm"
   viewBox="0 0 111.11518 64.165534"
   version="1.1"
   id="svg8095"
   sodipodi:docname="hex-spotlight.svg"
   inkscape:version="1.2.2 (b0a8486541, 2022-12-01)"
   xmlns:inkscape="http://www.inkscape.org/namespaces/inkscape"
   xmlns:sodipodi="http://sodipodi.sourceforge.net/DTD/sodipodi-0.dtd"
   xmlns="http://www.w3.org/2000/svg"
   xmlns:svg="http://www.w3.org/2000/svg">
  <sodipodi:namedview
     id="namedview77"
     pagecolor="#ffffff"
     bordercolor="#000000"
     borderopacity="0.25"
     inkscape:showpageshadow="2"
     inkscape:pageopacity="0.0"
     inkscape:pagecheckerboard="0"
     inkscape:deskcolor="#d1d1d1"
     inkscape:document-units="mm"
     showgrid="false"
     inkscape:zoom="0.48656702"
     inkscape:cx="382.27005"
     inkscape:cy="-24.662584"
     inkscape:window-width="1920"
     inkscape:window-height="1011"
     inkscape:window-x="0"
     inkscape:window-y="0"
     inkscape:window-maximized="1"
     inkscape:current-layer="svg8095" />
  <defs
     id="defs8092" />
  <g
     id="g613"
     transform="translate(-21.176485)">
    <polygon
       points="57.41,144.45 54.83,145.94 52.26,144.45 52.26,141.47 54.83,139.98 57.41,141.47 "
       style="fill:#ffffff;fill-opacity:0.027;stroke:none;stroke-width:0.75;stroke-linecap:round;stroke-linejoin:round;stroke-miterlimit:10"
       id="polygon320"
       transform="matrix(2.051988,0,0,2.051988,-86.060377,-235.30159)" />
    <polygon
       points="62.57,144.45 59.99,145.94 57.41,144.45 57.41,141.47 59.99,139.98 62.57,141.47 "
       style="fill:#ffffff;fill-opacity:0.027;stroke:none;stroke-width:0.75;stroke-linecap:round;stroke-linejoin:round;stroke-miterlimit:10"
       id="polygon322"
       transform="matrix(2.051988,0,0,2.051988,-86.060377,-235.30159)" />
    <polygon
       points="67.73,144.45 65.15,145.94 62.57,144.45 62.57,141.47 65.15,139.98 67.73,141.47 "
       style="fill:#ffffff;fill-opacity:0.027;stroke:none;stroke-width:0.75;stroke-linecap:round;stroke-linejoin:round;stroke-miterlimit:10"
       id="polygon324"
       transform="matrix(2.051988,0,0,2.051988,-86.060377,-235.30159)" />
    <polygon
       points="72.89,144.45 70.31,145.94 67.73,144.45 67.73,141.47 70.31,139.98 72.89,141.47 "
       style="fill:#ffffff;fill-opacity:0.027;stroke:none;stroke-width:0.75;stroke-linecap:round;stroke-linejoin:round;stroke-miterlimit:10"
       id="polygon326"
       transform="matrix(2.051988,0,0,2.051988,-86.060377,-235.30159)" />
    <path
       id="polygon372"
       style="fill:#ffffff;fill-opacity:0.027;stroke:none;stroke-width:0.75;stroke-linecap:round;stroke-linejoin:round;stroke-miterlimit:10"
       d="m 52.259985,135.50999 v 5.95995 l 2.569986,-1.48986 v -2.97998 z"
       transform="matrix(2.051988,0,0,2.051988,-86.060377,-235.30159)" />
    <polygon
       points="59.99,139.98 57.41,141.47 54.83,139.98 54.83,137 57.41,135.51 59.99,137 "
       style="fill:#ffffff;fill-opacity:0.055;stroke:none;stroke-width:0.75;stroke-linecap:round;stroke-linejoin:round;stroke-miterlimit:10"
       id="polygon374"
       transform="matrix(2.051988,0,0,2.051988,-86.060377,-235.30159)" />
    <polygon
       points="65.15,139.98 62.57,141.47 59.99,139.98 59.99,137 62.57,135.51 65.15,137 "
       style="fill:#ffffff;fill-opacity:0.055;stroke:none;stroke-width:0.75;stroke-linecap:round;stroke-linejoin:round;stroke-miterlimit:10"
       id="polygon376"
       transform="matrix(2.051988,0,0,2.051988,-86.060377,-235.30159)" />
    <polygon
       points="70.31,139.98 67.73,141.47 65.15,139.98 65.15,137 67.73,135.51 70.31,137 "
       style="fill:#ffffff;fill-opacity:0.055;stroke:none;stroke-width:0.75;stroke-linecap:round;stroke-linejoin:round;stroke-miterlimit:10"
       id="polygon378"
       transform="matrix(2.051988,0,0,2.051988,-86.060377,-235.30159)" />
    <polygon
       points="75.47,139.98 72.89,141.47 70.31,139.98 70.31,137 72.89,135.51 75.47,137 "
       style="fill:#ffffff;fill-opacity:0.027;stroke:none;stroke-width:0.75;stroke-linecap:round;stroke-linejoin:round;stroke-miterlimit:10"
       id="polygon380"
       transform="matrix(2.051988,0,0,2.051988,-86.060377,-235.30159)" />
    <polygon
       points="80.62,139.98 78.04,141.47 75.47,139.98 75.47,137 78.04,135.51 80.62,137 "
       style="fill:#ffffff;fill-opacity:0.027;stroke:none;stroke-width:0.75;stroke-linecap:round;stroke-linejoin:round;stroke-miterlimit:10"
       id="polygon382"
       transform="matrix(2.051988,0,0,2.051988,-86.060377,-235.30159)" />
    <polygon
       points="85.78,139.98 83.2,141.47 80.62,139.98 80.62,137 83.2,135.51 85.78,137 "
       style="fill:#ffffff;fill-opacity:0.027;stroke:none;stroke-width:0.75;stroke-linecap:round;stroke-linejoin:round;stroke-miterlimit:10"
       id="polygon384"
       transform="matrix(2.051988,0,0,2.051988,-86.060377,-235.30159)" />
    <polygon
       points="90.94,139.98 88.36,141.47 85.78,139.98 85.78,137 88.36,135.51 90.94,137 "
       style="fill:none;stroke:none;stroke-width:0.75;stroke-linecap:round;stroke-linejoin:round;stroke-miterlimit:10"
       id="polygon386"
       transform="matrix(2.051988,0,0,2.051988,-86.060377,-235.30159)" />
    <polygon
       points="57.41,135.51 54.83,137 52.26,135.51 52.26,132.54 54.83,131.05 57.41,132.54 "
       style="fill:#ffffff;fill-opacity:0.078;stroke:none;stroke-width:0.75;stroke-linecap:round;stroke-linejoin:round;stroke-miterlimit:10"
       id="polygon422"
       transform="matrix(2.051988,0,0,2.051988,-86.060377,-235.30159)" />
    <polygon
       points="62.57,135.51 59.99,137 57.41,135.51 57.41,132.54 59.99,131.05 62.57,132.54 "
       style="fill:#ffffff;fill-opacity:0.078;stroke:none;stroke-width:0.75;stroke-linecap:round;stroke-linejoin:round;stroke-miterlimit:10"
       id="polygon424"
       transform="matrix(2.051988,0,0,2.051988,-86.060377,-235.30159)" />
    <polygon
       points="67.73,135.51 65.15,137 62.57,135.51 62.57,132.54 65.15,131.05 67.73,132.54 "
       style="fill:#ffffff;fill-opacity:0.078;stroke:none;stroke-width:0.75;stroke-linecap:round;stroke-linejoin:round;stroke-miterlimit:10"
       id="polygon426"
       transform="matrix(2.051988,0,0,2.051988,-86.060377,-235.30159)" />
    <polygon
       points="72.89,135.51 70.31,137 67.73,135.51 67.73,132.54 70.31,131.05 72.89,132.54 "
       style="fill:#ffffff;fill-opacity:0.078;stroke:none;stroke-width:0.75;stroke-linecap:round;stroke-linejoin:round;stroke-miterlimit:10"
       id="polygon428"
       transform="matrix(2.051988,0,0,2.051988,-86.060377,-235.30159)" />
    <polygon
       points="78.04,135.51 75.47,137 72.89,135.51 72.89,132.54 75.47,131.05 78.04,132.54 "
       style="fill:#ffffff;fill-opacity:0.055;stroke:none;stroke-width:0.75;stroke-linecap:round;stroke-linejoin:round;stroke-miterlimit:10"
       id="polygon430"
       transform="matrix(2.051988,0,0,2.051988,-86.060377,-235.30159)" />
    <polygon
       points="83.2,135.51 80.62,137 78.04,135.51 78.04,132.54 80.62,131.05 83.2,132.54 "
       style="fill:#ffffff;fill-opacity:0.055;stroke:none;stroke-width:0.75;stroke-linecap:round;stroke-linejoin:round;stroke-miterlimit:10"
       id="polygon432"
       transform="matrix(2.051988,0,0,2.051988,-86.060377,-235.30159)" />
    <polygon
       points="88.36,135.51 85.78,137 83.2,135.51 83.2,132.54 85.78,131.05 88.36,132.54 "
       style="fill:#ffffff;fill-opacity:0.027;stroke:none;stroke-width:0.75;stroke-linecap:round;stroke-linejoin:round;stroke-miterlimit:10"
       id="polygon434"
       transform="matrix(2.051988,0,0,2.051988,-86.060377,-235.30159)" />
    <polygon
       points="93.52,135.51 90.94,137 88.36,135.51 88.36,132.54 90.94,131.05 93.52,132.54 "
       style="fill:none;stroke:none;stroke-width:0.75;stroke-linecap:round;stroke-linejoin:round;stroke-miterlimit:10"
       id="polygon436"
       transform="matrix(2.051988,0,0,2.051988,-86.060377,-235.30159)" />
    <path
       id="polygon476"
       style="fill:#ffffff;fill-opacity:0.11;stroke:none;stroke-width:0.75;stroke-linecap:round;stroke-linejoin:round;stroke-miterlimit:10"
       d="m 52.259985,126.57989 v 5.9602 l 2.569986,-1.49012 V 128.07 Z"
       transform="matrix(2.051988,0,0,2.051988,-86.060377,-235.30159)" />
    <polygon
       points="59.99,131.05 57.41,132.54 54.83,131.05 54.83,128.07 57.41,126.58 59.99,128.07 "
       style="fill:#ffffff;fill-opacity:0.13;stroke:none;stroke-width:0.75;stroke-linecap:round;stroke-linejoin:round;stroke-miterlimit:10"
       id="polygon478"
       transform="matrix(2.051988,0,0,2.051988,-86.060377,-235.30159)" />
    <polygon
       points="65.15,131.05 62.57,132.54 59.99,131.05 59.99,128.07 62.57,126.58 65.15,128.07 "
       style="fill:#ffffff;fill-opacity:0.13;stroke:none;stroke-width:0.75;stroke-linecap:round;stroke-linejoin:round;stroke-miterlimit:10"
       id="polygon480"
       transform="matrix(2.051988,0,0,2.051988,-86.060377,-235.30159)" />
    <polygon
       points="70.31,131.05 67.73,132.54 65.15,131.05 65.15,128.07 67.73,126.58 70.31,128.07 "
       style="fill:#ffffff;fill-opacity:0.13;stroke:none;stroke-width:0.75;stroke-linecap:round;stroke-linejoin:round;stroke-miterlimit:10"
       id="polygon482"
       transform="matrix(2.051988,0,0,2.051988,-86.060377,-235.30159)" />
    <polygon
       points="75.47,131.05 72.89,132.54 70.31,131.05 70.31,128.07 72.89,126.58 75.47,128.07 "
       style="fill:#ffffff;fill-opacity:0.11;stroke:none;stroke-width:0.75;stroke-linecap:round;stroke-linejoin:round;stroke-miterlimit:10"
       id="polygon484"
       transform="matrix(2.051988,0,0,2.051988,-86.060377,-235.30159)" />
    <polygon
       points="80.62,131.05 78.04,132.54 75.47,131.05 75.47,128.07 78.04,126.58 80.62,128.07 "
       style="fill:#ffffff;fill-opacity:0.078;stroke:none;stroke-width:0.75;stroke-linecap:round;stroke-linejoin:round;stroke-miterlimit:10"
       id="polygon486"
       transform="matrix(2.051988,0,0,2.051988,-86.060377,-235.30159)" />
    <polygon
       points="85.78,131.05 83.2,132.54 80.62,131.05 80.62,128.07 83.2,126.58 85.78,128.07 "
       style="fill:#ffffff;fill-opacity:0.055;stroke:none;stroke-width:0.75;stroke-linecap:round;stroke-linejoin:round;stroke-miterlimit:10"
       id="polygon488"
       transform="matrix(2.051988,0,0,2.051988,-86.060377,-235.30159)" />
    <polygon
       points="90.94,131.05 88.36,132.54 85.78,131.05 85.78,128.07 88.36,126.58 90.94,128.07 "
       style="fill:#ffffff;fill-opacity:0.027;stroke:none;stroke-width:0.75;stroke-linecap:round;stroke-linejoin:round;stroke-miterlimit:10"
       id="polygon490"
       transform="matrix(2.051988,0,0,2.051988,-86.060377,-235.30159)" />
    <polygon
       points="96.1,131.05 93.52,132.54 90.94,131.05 90.94,128.07 93.52,126.58 96.1,128.07 "
       style="fill:none;stroke:none;stroke-width:0.75;stroke-linecap:round;stroke-linejoin:round;stroke-miterlimit:10"
       id="polygon492"
       transform="matrix(2.051988,0,0,2.051988,-86.060377,-235.30159)" />
    <polygon
       points="101.25,131.05 98.68,132.54 96.1,131.05 96.1,128.07 98.68,126.58 101.25,128.07 "
       style="fill:none;stroke:none;stroke-width:0.75;stroke-linecap:round;stroke-linejoin:round;stroke-miterlimit:10"
       id="polygon494"
       transform="matrix(2.051988,0,0,2.051988,-86.060377,-235.30159)" />
    <polygon
       points="106.41,131.05 103.83,132.54 101.25,131.05 101.25,128.07 103.83,126.58 106.41,128.07 "
       style="fill:none;stroke:none;stroke-width:0.75;stroke-linecap:round;stroke-linejoin:round;stroke-miterlimit:10"
       id="polygon496"
       transform="matrix(2.051988,0,0,2.051988,-86.060377,-235.30159)" />
    <polygon
       points="57.41,126.58 54.83,128.07 52.26,126.58 52.26,123.6 54.83,122.11 57.41,123.6 "
       style="fill:#ffffff;fill-opacity:0.19;stroke:none;stroke-width:0.75;stroke-linecap:round;stroke-linejoin:round;stroke-miterlimit:10"
       id="polygon528"
       transform="matrix(2.051988,0,0,2.051988,-86.060377,-235.30159)" />
    <polygon
       points="62.57,126.58 59.99,128.07 57.41,126.58 57.41,123.6 59.99,122.11 62.57,123.6 "
       style="fill:#ffffff;fill-opacity:0.19;stroke:none;stroke-width:0.75;stroke-linecap:round;stroke-linejoin:round;stroke-miterlimit:10"
       id="polygon530"
       transform="matrix(2.051988,0,0,2.051988,-86.060377,-235.30159)" />
    <polygon
       points="67.73,126.58 65.15,128.07 62.57,126.58 62.57,123.6 65.15,122.11 67.73,123.6 "
       style="fill:#ffffff;fill-opacity:0.21;stroke:none;stroke-width:0.75;stroke-linecap:round;stroke-linejoin:round;stroke-miterlimit:10"
       id="polygon532"
       transform="matrix(2.051988,0,0,2.051988,-86.060377,-235.30159)" />
    <polygon
       points="72.89,126.58 70.31,128.07 67.73,126.58 67.73,123.6 70.31,122.11 72.89,123.6 "
       style="fill:#ffffff;fill-opacity:0.19;stroke:none;stroke-width:0.75;stroke-linecap:round;stroke-linejoin:round;stroke-miterlimit:10"
       id="polygon534"
       transform="matrix(2.051988,0,0,2.051988,-86.060377,-235.30159)" />
    <polygon
       points="78.04,126.58 75.47,128.07 72.89,126.58 72.89,123.6 75.47,122.11 78.04,123.6 "
       style="fill:#ffffff;fill-opacity:0.16;stroke:none;stroke-width:0.75;stroke-linecap:round;stroke-linejoin:round;stroke-miterlimit:10"
       id="polygon536"
       transform="matrix(2.051988,0,0,2.051988,-86.060377,-235.30159)" />
    <polygon
       points="83.2,126.58 80.62,128.07 78.04,126.58 78.04,123.6 80.62,122.11 83.2,123.6 "
       style="fill:#ffffff;fill-opacity:0.11;stroke:none;stroke-width:0.75;stroke-linecap:round;stroke-linejoin:round;stroke-miterlimit:10"
       id="polygon538"
       transform="matrix(2.051988,0,0,2.051988,-86.060377,-235.30159)" />
    <polygon
       points="88.36,126.58 85.78,128.07 83.2,126.58 83.2,123.6 85.78,122.11 88.36,123.6 "
       style="fill:#ffffff;fill-opacity:0.078;stroke:none;stroke-width:0.75;stroke-linecap:round;stroke-linejoin:round;stroke-miterlimit:10"
       id="polygon540"
       transform="matrix(2.051988,0,0,2.051988,-86.060377,-235.30159)" />
    <polygon
       points="93.52,126.58 90.94,128.07 88.36,126.58 88.36,123.6 90.94,122.11 93.52,123.6 "
       style="fill:#ffffff;fill-opacity:0.027;stroke:none;stroke-width:0.75;stroke-linecap:round;stroke-linejoin:round;stroke-miterlimit:10"
       id="polygon542"
       transform="matrix(2.051988,0,0,2.051988,-86.060377,-235.30159)" />
    <polygon
       points="98.68,126.58 96.1,128.07 93.52,126.58 93.52,123.6 96.1,122.11 98.68,123.6 "
       style="fill:#ffffff;fill-opacity:0.027;stroke:none;stroke-width:0.75;stroke-linecap:round;stroke-linejoin:round;stroke-miterlimit:10"
       id="polygon544"
       transform="matrix(2.051988,0,0,2.051988,-86.060377,-235.30159)" />
    <polygon
       points="103.83,126.58 101.25,128.07 98.68,126.58 98.68,123.6 101.25,122.11 103.83,123.6 "
       style="fill:none;stroke:none;stroke-width:0.75;stroke-linecap:round;stroke-linejoin:round;stroke-miterlimit:10"
       id="polygon546"
       transform="matrix(2.051988,0,0,2.051988,-86.060377,-235.30159)" />
    <path
       id="polygon576"
       style="fill:#ffffff;fill-opacity:0.21;stroke:none;stroke-width:0.75;stroke-linecap:round;stroke-linejoin:round;stroke-miterlimit:10"
       d="m 52.259985,117.65004 v 5.94987 l 2.569986,-1.48986 v -2.97015 z"
       transform="matrix(2.051988,0,0,2.051988,-86.060377,-235.30159)" />
    <polygon
       points="59.99,122.11 57.41,123.6 54.83,122.11 54.83,119.14 57.41,117.65 59.99,119.14 "
       style="fill:#ffffff;fill-opacity:0.27;stroke:none;stroke-width:0.75;stroke-linecap:round;stroke-linejoin:round;stroke-miterlimit:10"
       id="polygon578"
       transform="matrix(2.051988,0,0,2.051988,-86.060377,-235.30159)" />
    <polygon
       points="65.15,122.11 62.57,123.6 59.99,122.11 59.99,119.14 62.57,117.65 65.15,119.14 "
       style="fill:#ffffff;fill-opacity:0.27;stroke:none;stroke-width:0.75;stroke-linecap:round;stroke-linejoin:round;stroke-miterlimit:10"
       id="polygon580"
       transform="matrix(2.051988,0,0,2.051988,-86.060377,-235.30159)" />
    <polygon
       points="70.31,122.11 67.73,123.6 65.15,122.11 65.15,119.14 67.73,117.65 70.31,119.14 "
       style="fill:#ffffff;fill-opacity:0.27;stroke:none;stroke-width:0.75;stroke-linecap:round;stroke-linejoin:round;stroke-miterlimit:10"
       id="polygon582"
       transform="matrix(2.051988,0,0,2.051988,-86.060377,-235.30159)" />
    <polygon
       points="75.47,122.11 72.89,123.6 70.31,122.11 70.31,119.14 72.89,117.65 75.47,119.14 "
       style="fill:#ffffff;fill-opacity:0.24;stroke:none;stroke-width:0.75;stroke-linecap:round;stroke-linejoin:round;stroke-miterlimit:10"
       id="polygon584"
       transform="matrix(2.051988,0,0,2.051988,-86.060377,-235.30159)" />
    <polygon
       points="80.62,122.11 78.04,123.6 75.47,122.11 75.47,119.14 78.04,117.65 80.62,119.14 "
       style="fill:#ffffff;fill-opacity:0.19;stroke:none;stroke-width:0.75;stroke-linecap:round;stroke-linejoin:round;stroke-miterlimit:10"
       id="polygon586"
       transform="matrix(2.051988,0,0,2.051988,-86.060377,-235.30159)" />
    <polygon
       points="85.78,122.11 83.2,123.6 80.62,122.11 80.62,119.14 83.2,117.65 85.78,119.14 "
       style="fill:#ffffff;fill-opacity:0.13;stroke:none;stroke-width:0.75;stroke-linecap:round;stroke-linejoin:round;stroke-miterlimit:10"
       id="polygon588"
       transform="matrix(2.051988,0,0,2.051988,-86.060377,-235.30159)" />
    <polygon
       points="90.94,122.11 88.36,123.6 85.78,122.11 85.78,119.14 88.36,117.65 90.94,119.14 "
       style="fill:#ffffff;fill-opacity:0.078;stroke:none;stroke-width:0.75;stroke-linecap:round;stroke-linejoin:round;stroke-miterlimit:10"
       id="polygon590"
       transform="matrix(2.051988,0,0,2.051988,-86.060377,-235.30159)" />
    <polygon
       points="96.1,122.11 93.52,123.6 90.94,122.11 90.94,119.14 93.52,117.65 96.1,119.14 "
       style="fill:#ffffff;fill-opacity:0.027;stroke:none;stroke-width:0.75;stroke-linecap:round;stroke-linejoin:round;stroke-miterlimit:10"
       id="polygon592"
       transform="matrix(2.051988,0,0,2.051988,-86.060377,-235.30159)" />
    <polygon
       points="101.25,122.11 98.68,123.6 96.1,122.11 96.1,119.14 98.68,117.65 101.25,119.14 "
       style="fill:#ffffff;fill-opacity:0.027;stroke:none;stroke-width:0.75;stroke-linecap:round;stroke-linejoin:round;stroke-miterlimit:10"
       id="polygon594"
       transform="matrix(2.051988,0,0,2.051988,-86.060377,-235.30159)" />
    <polygon
       points="106.41,122.11 103.83,123.6 101.25,122.11 101.25,119.14 103.83,117.65 106.41,119.14 "
       style="fill:none;stroke:none;stroke-width:0.75;stroke-linecap:round;stroke-linejoin:round;stroke-miterlimit:10"
       id="polygon596"
       transform="matrix(2.051988,0,0,2.051988,-86.060377,-235.30159)" />
    <path
       id="polygon632"
       style="fill:#ffffff;fill-opacity:0.29;stroke:none;stroke-width:1.53899;stroke-linecap:round;stroke-linejoin:round;stroke-miterlimit:10"
       d="m 21.176609,0 v 6.11486 l 5.273858,3.05703 5.29389,-3.05703 V 0 Z" />
    <path
       id="polygon634"
       style="fill:#ffffff;fill-opacity:0.35;stroke:none;stroke-width:1.53899;stroke-linecap:round;stroke-linejoin:round;stroke-miterlimit:10"
       d="m 31.744357,0 v 6.11486 l 5.29388,3.05703 5.29389,-3.05703 V 0 Z" />
    <path
       id="polygon636"
       style="fill:#ffffff;fill-opacity:0.35;stroke:none;stroke-width:1.53899;stroke-linecap:round;stroke-linejoin:round;stroke-miterlimit:10"
       d="m 42.332127,0 v 6.11486 l 5.29472,3.05703 5.29388,-3.05703 V 0 Z" />
    <path
       id="polygon638"
       style="fill:#ffffff;fill-opacity:0.32;stroke:none;stroke-width:1.53899;stroke-linecap:round;stroke-linejoin:round;stroke-miterlimit:10"
       d="m 52.920727,0 v 6.11486 l 5.29389,3.05703 5.29472,-3.05703 V 0 Z" />
    <path
       id="polygon640"
       style="fill:#ffffff;fill-opacity:0.27;stroke:none;stroke-width:1.53899;stroke-linecap:round;stroke-linejoin:round;stroke-miterlimit:10"
       d="m 63.509337,0 v 6.11486 l 5.29388,3.05703 5.27386,-3.05703 V 0 Z" />
    <path
       id="polygon642"
       style="fill:#ffffff;fill-opacity:0.19;stroke:none;stroke-width:1.53899;stroke-linecap:round;stroke-linejoin:round;stroke-miterlimit:10"
       d="m 74.077077,0 v 6.11486 l 5.29389,3.05703 5.29388,-3.05703 V 0 Z" />
    <path
       id="polygon644"
       style="fill:#ffffff;fill-opacity:0.13;stroke:none;stroke-width:1.53899;stroke-linecap:round;stroke-linejoin:round;stroke-miterlimit:10"
       d="m 84.664847,0 v 6.11486 l 5.29472,3.05703 5.29388,-3.05703 V 0 Z" />
    <path
       id="polygon646"
       style="fill:#ffffff;fill-opacity:0.078;stroke:none;stroke-width:1.53899;stroke-linecap:round;stroke-linejoin:round;stroke-miterlimit:10"
       d="m 95.253447,0 v 6.11486 l 5.293893,3.05703 5.29388,-3.05703 V 0 Z" />
    <path
       id="polygon648"
       style="fill:#ffffff;fill-opacity:0.027;stroke:none;stroke-width:1.53899;stroke-linecap:round;stroke-linejoin:round;stroke-miterlimit:10"
       d="m 105.84122,0 v 6.11486 l 5.29472,3.05703 5.29389,-3.05703 V 0 Z" />
  </g>
</svg>
